<svg width="34" height="35" viewBox="0 0 34 35" fill="none" xmlns="http://www.w3.org/2000/svg">
<path d="M33.4421 35C30.4413 35 28 32.4338 28 29.2795V25.5865C28 25.2625 28.2498 25 28.5579 25C28.8661 25 29.1159 25.2625 29.1159 25.5865V29.2795C29.1159 31.787 31.0566 33.827 33.4421 33.827C33.7502 33.827 34 34.0895 34 34.4134C34.0001 34.7375 33.7502 35 33.4421 35Z" fill="#1B4145"/>
<path d="M16 32C24.2843 32 31 25.2843 31 17C31 8.71573 24.2843 2 16 2C7.71573 2 1 8.71573 1 17C1 25.2843 7.71573 32 16 32Z" fill="#273469"/>
<path d="M16 27C21.5228 27 26 22.5228 26 17C26 11.4772 21.5228 7 16 7C10.4772 7 6 11.4772 6 17C6 22.5228 10.4772 27 16 27Z" fill="#64D5F8"/>
<path d="M17 0C7.61114 0 0 7.61116 0 17C0 26.3888 7.61114 34 17 34C26.3888 34 34 26.3888 34 17C34 7.61116 26.3888 0 17 0ZM3.58055 12.6398C4.33487 10.3182 6.82846 9.04763 9.15003 9.80196C11.4716 10.5563 12.7422 13.0499 11.9878 15.3715C11.2334 17.6932 8.73989 18.9637 6.41832 18.2094C4.09675 17.455 2.82623 14.9614 3.58055 12.6398ZM14.8802 27.4375C13.4453 29.4124 10.6812 29.8502 8.70634 28.4153C6.73145 26.9805 6.29363 24.2163 7.72848 22.2414C9.16333 20.2665 11.9274 19.8287 13.9023 21.2636C15.8772 22.6984 16.315 25.4626 14.8802 27.4375ZM12.58 7.30998C12.58 4.86884 14.5588 2.88997 17 2.88997C19.4411 2.88997 21.42 4.86884 21.42 7.30998C21.42 9.75112 19.4411 11.73 17 11.73C14.5588 11.73 12.58 9.75112 12.58 7.30998ZM25.2937 28.4153C23.3188 29.85 20.5547 29.4123 19.1198 27.4374C17.685 25.4625 18.1228 22.6984 20.0977 21.2635C22.0726 19.8287 24.8367 20.2665 26.2715 22.2414C27.7063 24.2163 27.2685 26.9805 25.2937 28.4153ZM27.5815 18.2094C25.26 18.9636 22.7664 17.6932 22.0121 15.3715C21.2577 13.0499 22.5283 10.5563 24.8498 9.80196C27.1714 9.0477 29.665 10.3182 30.4193 12.6398C31.1736 14.9614 29.9032 17.455 27.5815 18.2094Z" fill="#959595"/>
<path d="M16.5 20C17.8807 20 19 18.8807 19 17.5C19 16.1193 17.8807 15 16.5 15C15.1193 15 14 16.1193 14 17.5C14 18.8807 15.1193 20 16.5 20Z" fill="#273469"/>
</svg>
